<svg width="16" height="18" viewBox="0 0 16 18" fill="none" xmlns="http://www.w3.org/2000/svg">
<path d="M7.99989 18C7.57953 18 7.23213 17.6922 7.17715 17.2928L7.16957 17.1818L7.17 2.799L1.91871 7.99526C1.59515 8.31547 1.06942 8.31658 0.744461 7.99775C0.449045 7.7079 0.421253 7.25342 0.661737 6.9326L0.741932 6.84067L7.41106 0.240669L7.42855 0.224493C7.44648 0.207733 7.46516 0.191755 7.48455 0.176611L7.41106 0.240669C7.44319 0.20887 7.47731 0.18022 7.51303 0.154718C7.53547 0.139301 7.55877 0.12434 7.58284 0.110538C7.6364 0.0793591 7.69245 0.0551968 7.75008 0.0373745C7.77039 0.0313702 7.79113 0.0257874 7.81219 0.0209942C7.82826 0.0170956 7.84459 0.0138893 7.86099 0.0111713C7.87876 0.00845337 7.89654 0.00608253 7.9145 0.00427437C7.93251 0.00222588 7.95093 0.000968933 7.96936 0.000314713C7.97958 0.000179291 7.98971 0 7.99989 0L8.02746 0.000244141C8.04791 0.000919342 8.06834 0.0023365 8.0887 0.00449371L7.99989 0C8.0473 0 8.09379 0.00391579 8.13903 0.0114384C8.15964 0.0147991 8.18035 0.0190563 8.20089 0.0240974C8.21722 0.0281391 8.23325 0.0325832 8.24907 0.0374832C8.26787 0.0432663 8.28681 0.0498753 8.30554 0.0571804C8.32488 0.0647678 8.34377 0.0729713 8.36229 0.0818348C8.37645 0.0885506 8.39106 0.0960674 8.40548 0.10404C8.43254 0.11908 8.45792 0.135 8.48232 0.152191C8.48614 0.154896 8.49035 0.157927 8.49454 0.161001C8.5316 0.18829 8.5643 0.216572 8.59457 0.247185L15.258 6.84062C15.5816 7.1608 15.5805 7.67884 15.2556 7.9977C14.9602 8.28757 14.4989 8.31304 14.1743 8.07472L14.0813 7.99531L8.831 2.8L8.83021 17.1818C8.83021 17.6337 8.45846 18 7.99989 18Z" fill="#3B5162"/>
</svg>
