<svg width="18" height="20" viewBox="0 0 18 20" fill="none" xmlns="http://www.w3.org/2000/svg">
<path d="M11.4738 0.000244141C11.5168 0.000244141 11.5591 0.00387265 11.6001 0.0108406L11.7365 0.0119441C11.9407 0.0119441 12.136 0.0952011 12.2775 0.24249L17.3435 5.51849C17.4776 5.65817 17.5525 5.8443 17.5525 6.03794V15.2279C17.5525 17.7229 15.5282 19.8649 13.0725 19.8649H5.08449C2.50133 19.8649 0.500488 17.8255 0.500488 15.2279V4.49094C0.500488 2.02977 2.59719 0.0119441 5.08449 0.0119441L11.3477 0.0107983C11.3887 0.00385797 11.4308 0.000244141 11.4738 0.000244141ZM10.7235 1.51024L5.08449 1.51194C3.41302 1.51194 2.00049 2.87134 2.00049 4.49094V15.2279C2.00049 17.0034 3.33625 18.3649 5.08449 18.3649H13.0725C14.6802 18.3649 16.0525 16.9129 16.0525 15.2279L16.0515 6.98324L15.1757 6.98631C14.8422 6.98591 14.4629 6.9852 14.0412 6.98424C12.2709 6.9805 10.8265 5.59372 10.729 3.84765L10.7238 3.65924L10.7235 1.51024ZM8.64079 6.69084C9.02048 6.69084 9.33428 6.973 9.38394 7.33907L9.39079 7.44084L9.39049 12.1952L10.9479 10.634C11.2402 10.3405 11.7151 10.3395 12.0086 10.6318C12.2754 10.8975 12.3005 11.3141 12.0833 11.6082L12.0108 11.6925L9.17183 14.5435L9.12807 14.584C9.1177 14.5929 9.10708 14.6015 9.09623 14.6098L9.17183 14.5435C9.13504 14.5804 9.09536 14.6127 9.05351 14.6404C9.03899 14.6498 9.02349 14.6592 9.00763 14.6682C8.99419 14.676 8.98098 14.6828 8.96761 14.6893C8.95121 14.697 8.93436 14.7045 8.9172 14.7113C8.90023 14.7182 8.88252 14.7245 8.86464 14.7301C8.85101 14.7341 8.83728 14.738 8.8234 14.7415C8.80337 14.7467 8.78325 14.7509 8.76302 14.7542C8.75108 14.7559 8.73901 14.7576 8.72685 14.759C8.70333 14.762 8.67958 14.7636 8.65582 14.7641C8.65093 14.7638 8.64586 14.7638 8.64079 14.7638L8.62583 14.7641C8.60139 14.7636 8.57697 14.762 8.55267 14.7591L8.64079 14.7638C8.59993 14.7638 8.55984 14.7606 8.52075 14.7543C8.49879 14.7512 8.47709 14.7467 8.45558 14.7412C8.44454 14.738 8.43314 14.7348 8.42185 14.7314C8.40004 14.7252 8.37868 14.7177 8.35763 14.7091C8.34641 14.704 8.3353 14.6991 8.32433 14.694C8.30675 14.6865 8.28943 14.6776 8.27241 14.668C8.25736 14.6588 8.24223 14.6495 8.22746 14.6398C8.21562 14.6327 8.20425 14.6247 8.19307 14.6164L8.18534 14.6098C8.17449 14.6015 8.16388 14.5929 8.15351 14.584L8.10885 14.5434L5.27085 11.6924C4.97862 11.3988 4.97971 10.9239 5.27327 10.6317C5.54015 10.366 5.95686 10.3428 6.24998 10.5613L6.33393 10.6341L7.89049 12.1982L7.89079 7.44084C7.89079 7.02663 8.22657 6.69084 8.64079 6.69084ZM12.2235 2.35124L12.2238 3.65924C12.2238 4.66581 13.0381 5.48212 14.0445 5.48425L15.2315 5.48424L12.2235 2.35124Z" />
</svg>
