<svg width="18" height="20" viewBox="0 0 18 20" fill="none" xmlns="http://www.w3.org/2000/svg">
<path d="M9.00986 4.22219e-05C11.3242 4.22219e-05 13.3577 1.44901 14.103 3.56664C14.2407 3.95805 14.0299 4.3852 13.632 4.52072C13.2342 4.65624 12.8 4.44881 12.6622 4.0574C12.1279 2.53928 10.6694 1.50004 9.00684 1.50004C6.93984 1.49198 5.24532 3.08145 5.13294 5.08576L5.12705 5.28098L5.127 6.626L12.8833 6.62635C15.3601 6.62635 17.3815 8.5457 17.495 10.9554L17.5 11.1692V15.4571C17.5 17.9661 15.433 20 12.8833 20H5.11668C2.56704 20 0.5 17.9661 0.5 15.4571V11.1692C0.5 9.18228 1.79639 7.49326 3.6022 6.87644L3.60239 5.2777C3.61542 2.35083 6.03752 -0.0115145 9.00986 4.22219e-05ZM12.8833 8.12631H5.11668C3.40915 8.12631 2.02466 9.48861 2.02466 11.1692V15.4571C2.02466 17.1377 3.40915 18.5 5.11668 18.5H12.8833C14.5908 18.5 15.9753 17.1377 15.9753 15.4571V11.1692C15.9753 9.48861 14.5908 8.12631 12.8833 8.12631ZM9.0002 11.4524C9.38614 11.4524 9.7051 11.7346 9.75558 12.1006L9.76254 12.2024V14.4243C9.76254 14.8385 9.42123 15.1743 9.0002 15.1743C8.61426 15.1743 8.29531 14.8922 8.24483 14.5261L8.23787 14.4243V12.2024C8.23787 11.7882 8.57918 11.4524 9.0002 11.4524Z" />
</svg>
