<svg width="34" height="32" viewBox="0 0 34 32" fill="none" xmlns="http://www.w3.org/2000/svg">
<path d="M28.6668 0.333374H5.3335C2.57683 0.333374 0.333496 2.57671 0.333496 5.33337V10.0517C0.333496 11.8067 0.970163 13.4017 2.00016 14.6284V30.3334C2.00016 30.7754 2.17576 31.1993 2.48832 31.5119C2.80088 31.8244 3.2248 32 3.66683 32H17.0002C17.4422 32 17.8661 31.8244 18.1787 31.5119C18.4912 31.1993 18.6668 30.7754 18.6668 30.3334V22H25.3335V30.3334C25.3335 30.7754 25.5091 31.1993 25.8216 31.5119C26.1342 31.8244 26.5581 32 27.0002 32H30.3335C30.7755 32 31.1994 31.8244 31.512 31.5119C31.8246 31.1993 32.0002 30.7754 32.0002 30.3334V14.6267C33.0302 13.4017 33.6668 11.8067 33.6668 10.05V5.33337C33.6668 2.57671 31.4235 0.333374 28.6668 0.333374ZM30.3335 5.33337V10.0517C30.3335 11.9517 28.9185 13.5717 27.1818 13.6634L27.0002 13.6667C25.1618 13.6667 23.6668 12.1717 23.6668 10.3334V3.66671H28.6668C29.5868 3.66671 30.3335 4.41504 30.3335 5.33337ZM13.6668 10.3334V3.66671H20.3335V10.3334C20.3335 12.1717 18.8385 13.6667 17.0002 13.6667C15.1618 13.6667 13.6668 12.1717 13.6668 10.3334ZM3.66683 5.33337C3.66683 4.41504 4.4135 3.66671 5.3335 3.66671H10.3335V10.3334C10.3335 12.1717 8.8385 13.6667 7.00016 13.6667L6.8185 13.6617C5.08183 13.5717 3.66683 11.9517 3.66683 10.0517V5.33337ZM13.6668 23.6667H7.00016V18.6667H13.6668V23.6667Z" fill="url(#paint0_linear)"/>
<defs>
<linearGradient id="paint0_linear" x1="17.0002" y1="0.333374" x2="17.0002" y2="32" gradientUnits="userSpaceOnUse">
<stop stop-color="#EA9769"/>
<stop offset="1" stop-color="#EA6969"/>
</linearGradient>
</defs>
</svg>
