<svg width="16" height="18" viewBox="0 0 16 18" fill="none" xmlns="http://www.w3.org/2000/svg">
<path d="M8.00011 0C8.42047 0 8.76787 0.307804 8.82285 0.707159L8.83043 0.818182L8.83 15.201L14.0813 10.0047C14.4049 9.68453 14.9306 9.68342 15.2555 10.0022C15.551 10.2921 15.5787 10.7466 15.3383 11.0674L15.2581 11.1593L8.58894 17.7593L8.57145 17.7755C8.55352 17.7923 8.53484 17.8082 8.51545 17.8234L8.58894 17.7593C8.55681 17.7911 8.52269 17.8198 8.48697 17.8453C8.46453 17.8607 8.44123 17.8757 8.41716 17.8895C8.3636 17.9206 8.30755 17.9448 8.24992 17.9626C8.22961 17.9686 8.20887 17.9742 8.18781 17.979C8.17174 17.9829 8.15541 17.9861 8.13901 17.9888C8.12124 17.9915 8.10346 17.9939 8.0855 17.9957C8.06749 17.9978 8.04907 17.999 8.03064 17.9997C8.02042 17.9998 8.01029 18 8.00011 18L7.97254 17.9998C7.95209 17.9991 7.93166 17.9977 7.9113 17.9955L8.00011 18C7.9527 18 7.90621 17.9961 7.86097 17.9886C7.84036 17.9852 7.81965 17.9809 7.79911 17.9759C7.78278 17.9719 7.76675 17.9674 7.75093 17.9625C7.73213 17.9567 7.71319 17.9501 7.69446 17.9428C7.67512 17.9352 7.65623 17.927 7.63771 17.9182C7.62355 17.9114 7.60894 17.9039 7.59452 17.896C7.56746 17.8809 7.54208 17.865 7.51768 17.8478C7.51386 17.8451 7.50965 17.8421 7.50546 17.839C7.4684 17.8117 7.4357 17.7834 7.40543 17.7528L0.741981 11.1594C0.418393 10.8392 0.419481 10.3212 0.744412 10.0023C1.0398 9.71243 1.50114 9.68696 1.8257 9.92528L1.91866 10.0047L7.169 15.2L7.16979 0.818182C7.16979 0.366312 7.54154 0 8.00011 0Z"/>
</svg>
