<svg width="22" height="16" viewBox="0 0 22 16" fill="none" xmlns="http://www.w3.org/2000/svg">
<path fill-rule="evenodd" clip-rule="evenodd" d="M0.250098 5.0001C0.250098 2.37675 2.37675 0.250098 5.0001 0.250098H17.0001C19.6234 0.250098 21.7501 2.37675 21.7501 5.0001V11.0001C21.7501 13.6235 19.6234 15.7501 17.0001 15.7501H5.0001C2.37674 15.7501 0.250098 13.6235 0.250098 11.0001V5.0001ZM1.83706 4.2501H20.1631C19.8246 2.81675 18.5369 1.7501 17.0001 1.7501H5.0001C3.46331 1.7501 2.17565 2.81675 1.83706 4.2501ZM20.2501 5.7501H1.7501V11.0001C1.7501 12.795 3.20517 14.2501 5.0001 14.2501H17.0001C18.795 14.2501 20.2501 12.795 20.2501 11.0001V5.7501ZM12.2501 11.0001C12.2501 10.5859 12.5859 10.2501 13.0001 10.2501H17.0001C17.4143 10.2501 17.7501 10.5859 17.7501 11.0001C17.7501 11.4143 17.4143 11.7501 17.0001 11.7501H13.0001C12.5859 11.7501 12.2501 11.4143 12.2501 11.0001Z"/>
</svg>
